<svg width="24" height="24" viewBox="0 0 24 24" fill="none" xmlns="http://www.w3.org/2000/svg">
<path fill-rule="evenodd" clip-rule="evenodd" d="M4 12C4 7.58161 7.58161 4 12 4C16.4184 4 20 7.58161 20 12C20 16.4184 16.4184 20 12 20C7.58161 20 4 16.4184 4 12ZM12 5.45455C8.38493 5.45455 5.45455 8.38493 5.45455 12C5.45455 15.6151 8.38493 18.5455 12 18.5455C15.6151 18.5455 18.5455 15.6151 18.5455 12C18.5455 8.38493 15.6151 5.45455 12 5.45455Z" fill="#48C95F"/>
<path fill-rule="evenodd" clip-rule="evenodd" d="M14.7803 10.1953C15.0732 10.4556 15.0732 10.8777 14.7803 11.1381L11.7803 13.8047C11.4874 14.0651 11.0126 14.0651 10.7197 13.8047L9.21967 12.4714C8.92678 12.2111 8.92678 11.7889 9.21967 11.5286C9.51256 11.2682 9.98744 11.2682 10.2803 11.5286L11.25 12.3905L13.7197 10.1953C14.0126 9.93491 14.4874 9.93491 14.7803 10.1953Z" fill="#48C95F"/>
</svg>
