<svg width="35" height="30" viewBox="0 0 35 30" fill="none" xmlns="http://www.w3.org/2000/svg">
<path d="M32.4271 8.12759L31.0886 2.40863C30.7169 0.752958 29.068 -0.293984 27.4106 0.0734687L3.23718 5.44033C1.57725 5.80863 0.526042 7.45919 0.894348 9.11656L3.9934 23.2085V26.9171C3.9934 28.6171 5.3771 30 7.07711 30H31.8397C33.5405 30 34.9234 28.6171 34.9234 26.9171V11.1542C34.9234 9.65453 33.8475 8.40212 32.4271 8.12759ZM31.8397 10.0603C32.4433 10.0603 32.9335 10.5506 32.9335 11.1533V13.8048H5.98327V11.1533C5.98327 10.5506 6.47435 10.0603 7.07711 10.0603H31.8397ZM32.9335 18.0403H5.98327V15.7955H32.9335V18.0403ZM3.9934 11.155V13.9463L2.83733 8.68858C2.70689 8.09946 3.07946 7.51375 3.66772 7.38331L27.842 2.0173C28.4303 1.88601 29.016 2.25858 29.1465 2.8477L29.1499 2.85878L30.3707 8.07133H7.07711C5.3771 8.07133 3.9934 9.45418 3.9934 11.155ZM32.9335 26.918C32.9335 27.5208 32.4433 28.011 31.8397 28.011H7.07711C6.47435 28.011 5.98327 27.5208 5.98327 26.918V23.09V20.0302H32.9335V26.9171V26.918Z" fill="#707372"/>
</svg>
