<svg width="31" height="30" viewBox="0 0 31 30" fill="none" xmlns="http://www.w3.org/2000/svg">
<path d="M18.7954 0C21.7183 0 24.096 2.37686 24.096 5.29971V8.514H27.9823C28.4674 8.514 28.8686 8.89114 28.896 9.37629L30.0111 29.0331C30.0411 29.5577 29.6229 30 29.0983 30H8.69143C8.16857 30 7.74857 29.5603 7.77771 29.0331L8.89371 9.37629C8.92114 8.892 9.32229 8.514 9.80743 8.514H13.4966V5.29971C13.4966 2.37686 15.8734 0 18.7963 0H18.7954ZM13.4966 10.3431H10.6714L9.65829 28.1709H28.1297L27.1174 10.3423H24.0951V13.6251C24.0951 14.1309 23.6854 14.5397 23.1806 14.5397C22.6749 14.5397 22.266 14.13 22.266 13.6251V10.3423H15.3249V13.6251C15.3249 14.1309 14.9151 14.5397 14.4103 14.5397C13.9046 14.5397 13.4957 14.13 13.4957 13.6251V10.3423L13.4966 10.3431ZM5.74886 23.16C6.25457 23.16 6.66343 23.5697 6.66343 24.0746C6.66343 24.5803 6.25457 24.99 5.74886 24.99H0.915428C0.409714 24.99 0 24.5803 0 24.0746C0 23.5697 0.409714 23.16 0.914571 23.16H5.74886ZM5.74886 18.6223C6.25457 18.6223 6.66343 19.032 6.66343 19.5377C6.66343 20.0426 6.25457 20.4523 5.74886 20.4523H2.78914C2.28343 20.4523 1.87457 20.0426 1.87457 19.5377C1.87457 19.032 2.28343 18.6223 2.78914 18.6223H5.74886ZM5.74886 14.0854C6.25457 14.0854 6.66343 14.4943 6.66343 15C6.66343 15.5049 6.25457 15.9146 5.74886 15.9146H0.915428C0.409714 15.9146 0 15.5049 0 15C0 14.4943 0.409714 14.0854 0.914571 14.0854H5.74886ZM18.7963 1.82829C16.8831 1.82829 15.3249 3.38571 15.3249 5.29971V8.514H22.2677V5.29971C22.2677 3.38571 20.7094 1.82829 18.7963 1.82829Z" fill="#707372"/>
</svg>
