<svg width="21" height="18" viewBox="0 0 21 18" fill="none" xmlns="http://www.w3.org/2000/svg">
<path d="M10.0751 3.39984L10.5156 4.22062L10.9562 3.39985C11.2675 2.81981 11.788 2.03979 12.5554 1.43473L12.2557 1.05464L12.5554 1.43473C13.347 0.8106 14.2336 0.5 15.2031 0.5C17.9095 0.5 20.0156 2.75311 20.0156 5.87445C20.0156 7.53272 19.3693 8.94808 18.1638 10.431C16.9457 11.9295 15.1932 13.4542 13.0253 15.3376L13.0253 15.3376C12.2926 15.9742 11.4601 16.6975 10.5943 17.4694L10.5941 17.4695C10.5714 17.4898 10.5436 17.5 10.5156 17.5C10.4877 17.5 10.4599 17.4898 10.4372 17.4695L10.4369 17.4693C9.57174 16.698 8.7396 15.975 8.00764 15.3391L8.00641 15.338L8.0064 15.338C5.83828 13.4544 4.08565 11.9296 2.86746 10.431C1.66195 8.94808 1.01562 7.53271 1.01562 5.87445C1.01562 2.75311 3.12178 0.5 5.82812 0.5C6.7976 0.5 7.68426 0.8106 8.47586 1.43473L8.77554 1.05464L8.47586 1.43473C9.24329 2.0398 9.76373 2.81978 10.0751 3.39984Z" stroke="#101820"/>
</svg>
