<svg width="139" height="32" viewBox="0 0 139 32" fill="none" xmlns="http://www.w3.org/2000/svg">
<path d="M62.7951 19.5284V15.1636C62.7951 13.5166 61.7475 12.4079 60.0615 12.3934C59.5813 12.3622 59.1016 12.4608 58.6723 12.6788C58.2431 12.8969 57.88 13.2264 57.6209 13.633C57.3849 13.2384 57.0471 12.915 56.6431 12.6969C56.2391 12.4787 55.7839 12.3739 55.3255 12.3934C54.9263 12.374 54.529 12.4594 54.1728 12.6411C53.8165 12.8227 53.5137 13.0944 53.2941 13.4293V12.5563H51.7822V19.5284H53.3086V15.667C53.3086 14.4565 53.9761 13.8163 55.0092 13.8163C56.0423 13.8163 56.5211 14.471 56.5211 15.6524V19.5284H58.0388V15.667C58.0388 14.4565 58.7353 13.8163 59.7393 13.8163C60.7434 13.8163 61.2658 14.471 61.2658 15.6524V19.5284H62.7951ZM85.3809 12.5621H82.9113V10.4496H81.3849V12.5621H79.9746V13.9472H81.3849V17.1219C81.3849 18.7398 82.0088 19.703 83.7964 19.703C84.4641 19.7051 85.1188 19.5186 85.6856 19.1647L85.2503 17.8668C84.8447 18.1091 84.3844 18.2443 83.9125 18.2597C83.158 18.2597 82.9084 17.7941 82.9084 17.0957V13.9472H85.378L85.3809 12.5621ZM98.2742 12.3875C97.9056 12.3768 97.5409 12.466 97.2186 12.6457C96.8963 12.8255 96.6284 13.0892 96.4431 13.4089V12.5621H94.9457V19.5284H96.4576V15.6233C96.4576 14.4594 96.9509 13.8308 97.9405 13.8308C98.2642 13.8261 98.5857 13.8855 98.8865 14.0054L99.3508 12.5767C99.0053 12.4528 98.6412 12.3888 98.2742 12.3875ZM78.7819 13.115C77.9259 12.6051 76.9417 12.3525 75.9467 12.3875C74.1881 12.3875 73.0447 13.2343 73.0447 14.6165C73.0447 15.7543 73.8863 16.4526 75.4417 16.6709L76.1527 16.7727C76.9798 16.8891 77.3744 17.1074 77.3744 17.5002C77.3744 18.0385 76.8231 18.347 75.79 18.347C74.9565 18.3735 74.1385 18.1172 73.4684 17.6195L72.7807 18.798C73.6611 19.4153 74.7161 19.7325 75.79 19.703C77.7952 19.703 78.9589 18.7544 78.9589 17.4304C78.9589 16.2053 78.0419 15.5651 76.5329 15.3469L75.8219 15.245C75.169 15.1577 74.6437 15.0268 74.6437 14.5612C74.6437 14.052 75.137 13.7464 75.967 13.7464C76.7274 13.7577 77.4724 13.963 78.1318 14.343L78.7819 13.115ZM119.27 12.3875C118.901 12.3768 118.536 12.466 118.214 12.6457C117.892 12.8255 117.624 13.0892 117.439 13.4089V12.5621H115.941V19.5284H117.453V15.6233C117.453 14.4594 117.946 13.8308 118.936 13.8308C119.26 13.8261 119.581 13.8855 119.882 14.0054L120.346 12.5767C120.001 12.4528 119.637 12.3888 119.27 12.3875ZM99.8006 16.0453C99.8006 18.1578 101.269 19.703 103.506 19.703C104.414 19.748 105.305 19.4511 106.005 18.8708L105.279 17.6457C104.757 18.0448 104.12 18.2642 103.463 18.2713C102.256 18.2713 101.371 17.3809 101.371 16.0423C101.371 14.7038 102.259 13.8279 103.463 13.8134C104.12 13.8205 104.757 14.0399 105.279 14.439L106.005 13.2139C105.305 12.6336 104.414 12.3367 103.506 12.3817C101.269 12.3817 99.8006 13.9269 99.8006 16.0394V16.0453ZM113.956 16.0453V12.5534H112.444V13.4002C112.187 13.0666 111.853 12.7998 111.471 12.6222C111.09 12.4445 110.671 12.361 110.251 12.3788C108.303 12.3788 106.768 13.9094 106.768 16.0365C106.768 18.1637 108.295 19.6943 110.251 19.6943C110.671 19.712 111.09 19.6286 111.471 19.4509C111.853 19.2732 112.187 19.0064 112.444 18.6729V19.5167H113.956V16.0453ZM108.332 16.0453C108.332 14.8202 109.13 13.8163 110.439 13.8163C111.69 13.8163 112.531 14.7795 112.531 16.0453C112.531 17.3111 111.69 18.2742 110.439 18.2742C109.13 18.2742 108.332 17.2674 108.332 16.0453ZM90.0907 12.3875C88.0594 12.3875 86.6316 13.8745 86.6316 16.0453C86.6316 18.2597 88.1145 19.703 90.1923 19.703C91.2298 19.7394 92.2443 19.3914 93.042 18.7253L92.302 17.602C91.7248 18.0651 91.0098 18.3212 90.2707 18.3295C89.2956 18.3295 88.4105 17.8785 88.1929 16.6243H93.3525C93.367 16.4352 93.3815 16.246 93.3815 16.0423C93.3815 13.8716 92.0292 12.3846 90.082 12.3846L90.0907 12.3875ZM90.0617 13.7435C91.0368 13.7435 91.6607 14.3546 91.8203 15.4342H88.219C88.3786 14.4274 88.988 13.7435 90.0646 13.7435H90.0617ZM127.976 16.0453V9.76282H126.464V13.406C126.206 13.0725 125.872 12.8057 125.49 12.628C125.109 12.4503 124.69 12.3668 124.27 12.3846C122.323 12.3846 120.787 13.9152 120.787 16.0423C120.787 18.1695 122.314 19.7001 124.27 19.7001C124.69 19.7179 125.109 19.6344 125.49 19.4567C125.872 19.279 126.206 19.0122 126.464 18.6787V19.5226H127.976V16.0453ZM129.743 18.8853C129.803 18.8851 129.862 18.8969 129.917 18.9202C129.97 18.9429 130.018 18.9755 130.059 19.0162C130.1 19.0562 130.132 19.1036 130.155 19.1559C130.178 19.2101 130.19 19.2686 130.19 19.3276C130.19 19.3866 130.178 19.4451 130.155 19.4993C130.132 19.5515 130.1 19.5989 130.059 19.639C130.018 19.6795 129.97 19.7121 129.917 19.735C129.862 19.7585 129.803 19.7704 129.743 19.7699C129.654 19.771 129.568 19.7459 129.493 19.6978C129.419 19.6497 129.36 19.5806 129.325 19.4993C129.302 19.445 129.29 19.3866 129.29 19.3276C129.29 19.2686 129.302 19.2102 129.325 19.1559C129.37 19.0491 129.456 18.9644 129.563 18.9202C129.622 18.8957 129.685 18.8838 129.749 18.8853H129.743ZM129.743 19.671C129.789 19.6717 129.834 19.6628 129.876 19.6448C129.916 19.6274 129.953 19.6028 129.984 19.572C130.048 19.5071 130.084 19.4192 130.084 19.3276C130.084 19.236 130.048 19.1481 129.984 19.0832C129.953 19.0523 129.916 19.0276 129.876 19.0104C129.834 18.9926 129.789 18.9837 129.743 18.9842C129.696 18.9836 129.65 18.9925 129.606 19.0104C129.555 19.0326 129.509 19.0671 129.474 19.1109C129.438 19.1548 129.414 19.2066 129.403 19.262C129.392 19.3174 129.395 19.3745 129.411 19.4286C129.428 19.4826 129.457 19.5319 129.496 19.572C129.528 19.6032 129.565 19.6279 129.606 19.6448C129.651 19.6636 129.7 19.6725 129.749 19.671H129.743ZM129.769 19.1181C129.812 19.115 129.856 19.1274 129.891 19.153C129.905 19.1645 129.917 19.1791 129.924 19.1958C129.932 19.2125 129.935 19.2307 129.934 19.249C129.935 19.2648 129.932 19.2805 129.926 19.295C129.92 19.3096 129.911 19.3227 129.9 19.3334C129.873 19.3572 129.839 19.3715 129.804 19.3742L129.937 19.5284H129.833L129.708 19.3742H129.667V19.5284H129.58V19.121L129.769 19.1181ZM129.667 19.1938V19.3043H129.769C129.787 19.3096 129.806 19.3096 129.824 19.3043C129.831 19.2998 129.836 19.2938 129.84 19.2866C129.843 19.2795 129.845 19.2716 129.844 19.2636C129.845 19.2556 129.843 19.2477 129.84 19.2406C129.836 19.2334 129.831 19.2273 129.824 19.2228C129.806 19.2176 129.787 19.2176 129.769 19.2228L129.667 19.1938ZM122.357 16.0453C122.357 14.8202 123.155 13.8163 124.464 13.8163C125.715 13.8163 126.556 14.7795 126.556 16.0453C126.556 17.3111 125.715 18.2742 124.464 18.2742C123.155 18.2742 122.357 17.2674 122.357 16.0453ZM71.3123 16.0453V12.5534H69.8004V13.4002C69.5425 13.0695 69.2099 12.8051 68.8298 12.629C68.4498 12.4529 68.0335 12.3701 67.6152 12.3875C65.668 12.3875 64.1329 13.9181 64.1329 16.0453C64.1329 18.1724 65.6593 19.703 67.6152 19.703C68.0357 19.7208 68.4542 19.6373 68.8359 19.4596C69.2176 19.2819 69.5513 19.0152 69.8091 18.6816V19.5255H71.321L71.3123 16.0453ZM65.6883 16.0453C65.6883 14.8202 66.4864 13.8163 67.7951 13.8163C69.0459 13.8163 69.8874 14.7795 69.8874 16.0453C69.8874 17.3111 69.0459 18.2742 67.7951 18.2742C66.4864 18.2742 65.6883 17.2703 65.6883 16.0453Z" fill="white"/>
<path d="M32.4897 7.76318H23.3486V24.236H32.4897V7.76318Z" fill="#FF5F00"/>
<path d="M23.9292 16.0044C23.9279 14.4182 24.2865 12.8525 24.9778 11.4258C25.6691 9.99911 26.675 8.74878 27.9194 7.76944C26.3782 6.55491 24.5273 5.79967 22.5783 5.59003C20.6293 5.38039 18.6608 5.72481 16.8978 6.58393C15.1348 7.44304 13.6484 8.78218 12.6085 10.4483C11.5686 12.1144 11.0171 14.0403 11.0171 16.0059C11.0171 17.9714 11.5686 19.8973 12.6085 21.5634C13.6484 23.2295 15.1348 24.5687 16.8978 25.4278C18.6608 26.2869 20.6293 26.6313 22.5783 26.4217C24.5273 26.2121 26.3782 25.4568 27.9194 24.2423C26.6746 23.2626 25.6685 22.0118 24.9772 20.5846C24.2859 19.1574 23.9275 17.5911 23.9292 16.0044Z" fill="#EB001B"/>
<path d="M44.8232 16.0041C44.8232 17.9698 44.2716 19.8958 43.2315 21.562C42.1914 23.2282 40.7047 24.5673 38.9415 25.4263C37.1783 26.2853 35.2096 26.6295 33.2605 26.4196C31.3114 26.2096 29.4605 25.454 27.9194 24.2391C29.1633 23.2589 30.1689 22.0082 30.8604 20.5814C31.5518 19.1546 31.9111 17.589 31.9111 16.0027C31.9111 14.4163 31.5518 12.8507 30.8604 11.4239C30.1689 9.99714 29.1633 8.74647 27.9194 7.76625C29.4607 6.5512 31.3118 5.79556 33.2612 5.58573C35.2106 5.37589 37.1795 5.72034 38.9428 6.57968C40.7062 7.43903 42.1928 8.77859 43.2326 10.4452C44.2725 12.1118 44.8237 14.0382 44.8232 16.0041Z" fill="#F79E1B"/>
<path d="M43.8193 22.4903V22.1527H43.9557V22.0858H43.6162V22.1556H43.7526V22.4932L43.8193 22.4903ZM44.4897 22.4903V22.0829H44.3997L44.2779 22.3739L44.156 22.0829H44.0486V22.4903H44.1095V22.1847L44.2227 22.4495H44.3011L44.4142 22.1847V22.4932L44.4897 22.4903Z" fill="#F79E1B"/>
</svg>
