<svg width="19" height="18" viewBox="0 0 19 18" fill="none" xmlns="http://www.w3.org/2000/svg">
<path d="M5.01562 4.75C5.01562 2.40699 6.92262 0.5 9.26562 0.5C11.6086 0.5 13.5156 2.40699 13.5156 4.75C13.5156 7.09301 11.6086 9 9.26562 9C6.92262 9 5.01562 7.09301 5.01562 4.75Z" stroke="#101820"/>
<path d="M10.4092 9.84619C12.3964 9.84619 14.2687 10.6347 15.6848 12.0726L15.9702 11.7915L15.6848 12.0726C17.0945 13.5039 17.8691 15.3903 17.8691 17.3878C17.8691 17.4498 17.8188 17.5001 17.7568 17.5001H0.612305C0.550291 17.5001 0.5 17.4498 0.5 17.3878C0.5 15.3903 1.27468 13.5039 2.68438 12.0726L2.32815 11.7217L2.68438 12.0726C4.10047 10.6347 5.97282 9.84619 7.95996 9.84619H10.4092Z" stroke="#101820"/>
</svg>
