<svg width="35" height="30" viewBox="0 0 35 30" fill="none" xmlns="http://www.w3.org/2000/svg">
<path d="M19.3627 0C12.0923 0 6.01851 5.20038 4.65346 12.0739L1.8023 8.50961L0 9.9519L4.61541 15.7211C4.84038 16.0016 5.17501 16.1538 5.51656 16.1538C5.69079 16.1538 5.8673 16.1146 6.03234 16.0327L12.9554 12.5711L11.9227 10.5069L6.83543 13.05C7.77926 6.9761 13.0281 2.30767 19.3627 2.30767C26.3608 2.30767 32.0551 8.00188 32.0551 15C32.0551 21.9981 26.3608 27.6923 19.3627 27.6923V30C27.6335 30 34.3627 23.2707 34.3627 15C34.3627 6.72925 27.6335 0 19.3627 0Z" fill="#707372"/>
</svg>
