<svg width="41" height="30" viewBox="0 0 41 30" fill="none" xmlns="http://www.w3.org/2000/svg">
<path d="M38.2216 22.0767L21.3516 12.3006V11.5732C21.3516 10.7437 21.8249 9.97214 22.587 9.55961C24.3038 8.6303 25.3243 6.84032 25.2502 4.88826C25.15 2.24957 23.0049 0.104012 20.3667 0.00387201C18.9708 -0.0497039 17.6488 0.454225 16.6442 1.42119C15.639 2.38887 15.0855 3.69013 15.0855 5.08515C15.0855 5.73783 15.6146 6.26697 16.2673 6.26697C16.92 6.26697 17.4491 5.73783 17.4491 5.08515C17.4491 4.3384 17.7454 3.64199 18.2835 3.12396C18.8209 2.60664 19.528 2.33663 20.277 2.36578C21.6877 2.41936 22.8347 3.56675 22.8883 4.97792C22.928 6.02399 22.3814 6.98308 21.4619 7.48094C19.9359 8.30696 18.9879 9.875 18.9879 11.5732V12.3006L2.1179 22.0767C0.811518 22.8337 0 24.2422 0 25.7522C0 28.0945 1.90525 30 4.24715 30H36.0924C38.4343 30 40.3395 28.0944 40.3395 25.7521C40.3395 24.2421 39.528 22.8337 38.2216 22.0767ZM36.0924 27.6364H4.24715C3.20857 27.6364 2.36364 26.791 2.36364 25.7521C2.36364 25.0823 2.72355 24.4576 3.30303 24.1219L20.1698 14.3476L37.0365 24.1219C37.6159 24.4577 37.9759 25.0823 37.9759 25.7522C37.9759 26.7911 37.1309 27.6364 36.0924 27.6364Z" fill="#707372"/>
</svg>
