<svg width="48" height="48" viewBox="0 0 48 48" fill="none" xmlns="http://www.w3.org/2000/svg">
<path d="M19.2197 16.8573L16.7803 31.1728H20.6818L23.1232 16.8573H19.2197Z" fill="white"/>
<path d="M13.5088 16.8734L9.68759 26.6361L9.28018 25.162C8.52657 23.3859 6.38717 20.8351 3.87549 19.2275L7.36957 31.1658L11.4978 31.1588L17.6421 16.8704L13.5088 16.8734Z" fill="white"/>
<path d="M7.79897 17.8979C7.57219 17.0259 6.91491 16.766 6.09909 16.7349H0.0501735L0 17.0198C4.70728 18.1618 7.82205 20.9133 9.11452 24.2218L7.79897 17.8979Z" fill="white"/>
<path d="M31.0304 19.6018C32.3068 19.5817 33.232 19.8607 33.9505 20.1497L34.3027 20.3153L34.8305 17.2125C34.0579 16.9225 32.8467 16.6115 31.3354 16.6115C27.4801 16.6115 24.7627 18.5532 24.7416 21.3358C24.7166 23.3919 26.6773 24.5399 28.1585 25.2252C29.6787 25.9277 30.1885 26.3742 30.1815 27.0014C30.1694 27.9597 28.9693 28.3992 27.8484 28.3992C26.286 28.3992 25.4561 28.1835 24.1747 27.6496L23.6719 27.4208L23.123 30.6249C24.0362 31.0253 25.721 31.3695 27.4701 31.3876C31.5713 31.3876 34.2365 29.4689 34.2646 26.4956C34.2816 24.869 33.241 23.6277 30.9862 22.6092C29.6215 21.9449 28.7866 21.5034 28.7947 20.833C28.7947 20.238 29.5031 19.6018 31.0304 19.6018Z" fill="white"/>
<path d="M44.8432 16.8734H41.8288C40.8926 16.8734 40.1962 17.1283 39.7847 18.0615L33.9917 31.1809H38.0889C38.0889 31.1809 38.7572 29.4168 38.9087 29.0305C39.3573 29.0305 43.338 29.0365 43.905 29.0365C44.0214 29.5362 44.3806 31.1809 44.3806 31.1809H48.0001L44.8432 16.8734ZM40.0316 26.1003C40.3527 25.2785 41.586 22.0995 41.586 22.0995C41.5649 22.1386 41.9041 21.2716 42.1058 20.7328L42.3687 21.967C42.3687 21.967 43.1163 25.3848 43.2728 26.1003H40.0316Z" fill="white"/>
</svg>
