<?xml version="1.0" standalone="no"?>
<!DOCTYPE svg PUBLIC "-//W3C//DTD SVG 20010904//EN"
 "http://www.w3.org/TR/2001/REC-SVG-20010904/DTD/svg10.dtd">
<svg version="1.0" xmlns="http://www.w3.org/2000/svg"
 width="600.000000pt" height="600.000000pt" viewBox="0 0 600.000000 600.000000"
 preserveAspectRatio="xMidYMid meet">
<metadata>
Created by potrace 1.16, written by Peter Selinger 2001-2019
</metadata>
<g transform="translate(0.000000,600.000000) scale(0.100000,-0.100000)"
fill="#FFFFFF" stroke="none">
<path d="M4304 4181 c-130 -24 -254 -67 -351 -122 -99 -56 -232 -187 -290
-286 -86 -147 -136 -350 -114 -466 39 -212 182 -306 573 -376 205 -37 236 -45
278 -73 56 -39 73 -69 71 -132 -2 -104 -59 -213 -139 -266 -94 -62 -142 -74
-302 -74 -127 -1 -154 2 -220 24 -90 29 -183 90 -229 151 -19 24 -39 44 -45
43 -14 -1 -390 -262 -394 -273 -5 -15 88 -121 142 -160 94 -70 200 -116 341
-148 113 -25 461 -26 587 0 421 85 677 318 779 707 13 52 22 117 22 166 1 72
-3 89 -31 147 -19 38 -49 80 -70 97 -96 80 -278 142 -592 200 -188 34 -242 72
-242 171 0 67 21 127 67 190 61 82 165 119 334 119 169 -1 285 -42 374 -135
l52 -53 197 136 c109 76 198 142 198 147 0 23 -89 111 -155 155 -145 94 -256
121 -530 126 -174 3 -227 0 -311 -15z"/>
<path d="M1580 4165 c0 -3 -135 -472 -301 -1043 -165 -570 -303 -1050 -306
-1065 l-6 -29 519 5 c560 5 601 8 778 64 439 138 737 527 882 1151 34 144 43
365 20 471 -24 112 -66 193 -138 265 -100 100 -230 153 -433 176 -91 10 -1015
15 -1015 5z m830 -385 c116 -14 184 -49 225 -114 28 -47 30 -55 29 -150 -1
-96 -5 -115 -87 -396 -47 -162 -97 -323 -111 -357 -68 -172 -208 -297 -371
-331 -41 -9 -306 -16 -472 -13 l-41 1 33 113 c18 61 97 333 175 602 78 270
153 527 166 573 l25 82 172 0 c95 0 211 -5 257 -10z"/>
</g>
</svg>
